<?xml version="1.0" standalone="no"?>
<!DOCTYPE svg PUBLIC "-//W3C//DTD SVG 1.1//EN" "http://www.w3.org/Graphics/SVG/1.1/DTD/svg11.dtd">
<svg width="100%" height="100%" viewBox="0 0 626 407" version="1.1" xmlns="http://www.w3.org/2000/svg" xmlns:xlink="http://www.w3.org/1999/xlink" xml:space="preserve" style="fill-rule:evenodd;clip-rule:evenodd;stroke-linejoin:round;stroke-miterlimit:1.41421;">
    <g transform="matrix(1,0,0,1,-938.821,-1152.99)">
        <g transform="matrix(1,0,0,1,397.984,-156.189)">
            <path d="M800.7,1612.39L893.664,1309.18L910.07,1309.18L1026.67,1628.22L1087.32,1417.28C1095.32,1388.77 1099.33,1370.11 1099.33,1361.33C1099.33,1335.54 1085.56,1322.65 1058.02,1322.65L1058.02,1309.18L1166.42,1309.18L1166.42,1322.65C1150.4,1323.83 1138.49,1329.73 1130.67,1340.38C1122.86,1351.02 1113,1376.56 1101.09,1416.99L1013.78,1716.11L1000.6,1716.11L879.601,1388.57L782.416,1704.37L772.665,1704.08L769.52,1645.67C769.365,1644.64 769.223,1643.57 769.097,1642.47C767.285,1626.63 751.774,1598.81 738.298,1585.34C724.821,1572.06 700.212,1557.8 664.47,1542.56C632.634,1528.89 608.61,1516.93 592.399,1506.67C576.188,1496.42 563.542,1483.09 554.46,1466.68C545.378,1450.28 540.837,1432.8 540.837,1414.24C540.837,1385.92 550.651,1362.34 570.28,1343.49C589.909,1324.64 614.763,1315.22 644.841,1315.22C661.638,1315.22 677.458,1317.95 692.302,1323.42C707.145,1328.89 722.38,1340.22 738.005,1357.41C746.989,1346.66 752.067,1335.04 753.239,1322.54L766.13,1322.54L766.13,1426.55L753.239,1426.55C745.817,1396.27 732.683,1372.44 713.835,1355.06C694.987,1337.68 673.161,1328.99 648.356,1328.99C624.724,1328.99 607.39,1335.38 596.354,1348.18C585.319,1360.97 579.802,1374.98 579.802,1390.22C579.802,1408.58 586.735,1424.11 600.602,1436.8C614.274,1449.69 638.981,1464.14 674.724,1480.16C708.903,1495.39 733.757,1507.65 749.284,1516.93C764.811,1526.2 777.263,1539.05 786.638,1555.45C796.013,1571.86 800.7,1590.81 800.7,1612.29L800.7,1612.39Z" style="fill:rgb(255,255,255);"/>
        </g>
    </g>
</svg>
